<svg width="266" height="60" viewBox="0 0 266 60" fill="none" xmlns="http://www.w3.org/2000/svg">
<path d="M40.264 45.706C43.2701 45.706 45.707 43.2691 45.707 40.263C45.707 37.2569 43.2701 34.82 40.264 34.82C37.2579 34.82 34.821 37.2569 34.821 40.263C34.821 43.2691 37.2579 45.706 40.264 45.706Z" fill="#6A0F02"/>
<path d="M30 0C13.458 0 0 13.458 0 30C0 46.542 13.458 60 30 60C46.542 60 60 46.542 60 30C60 13.458 46.542 0 30 0ZM23.584 23.584C23.0784 24.0895 22.4782 24.4905 21.8176 24.7641C21.1571 25.0376 20.4491 25.1784 19.7341 25.1784C19.0192 25.1783 18.3112 25.0375 17.6507 24.7638C16.9902 24.4902 16.39 24.0891 15.8845 23.5835C15.379 23.0779 14.978 22.4777 14.7044 21.8171C14.4309 21.1566 14.2901 20.4486 14.2901 19.7336C14.2902 19.0187 14.431 18.3107 14.7047 17.6502C14.9783 16.9897 15.3794 16.3895 15.885 15.884C16.9061 14.863 18.2909 14.2895 19.7349 14.2896C21.1788 14.2897 22.5635 14.8634 23.5845 15.8845C24.6055 16.9056 25.179 18.2904 25.1789 19.7344C25.1788 21.1783 24.6051 22.563 23.584 23.584ZM44.085 54.259C39.226 55.58 33.815 54.345 29.999 50.53C24.331 44.862 24.331 35.67 29.999 30.001C35.668 24.332 35.668 15.141 29.999 9.473C26.184 5.657 20.774 4.421 15.915 5.743C20.1887 3.24598 25.0503 1.93196 30 1.936C45.476 1.936 58.064 14.525 58.064 30C58.064 40.344 52.436 49.391 44.085 54.259Z" fill="#6A0F02"/>
<path d="M71.95 27.75C71.95 28.54 72.12 29.245 72.46 29.865C72.81 30.485 73.285 30.975 73.885 31.335C74.485 31.695 75.165 31.875 75.925 31.875C76.695 31.875 77.375 31.695 77.965 31.335C78.565 30.975 79.035 30.485 79.375 29.865C79.725 29.245 79.9 28.54 79.9 27.75C79.9 26.96 79.725 26.255 79.375 25.635C79.035 25.015 78.565 24.525 77.965 24.165C77.375 23.805 76.695 23.625 75.925 23.625C75.165 23.625 74.485 23.805 73.885 24.165C73.285 24.525 72.81 25.015 72.46 25.635C72.12 26.255 71.95 26.96 71.95 27.75ZM70.6 27.75C70.6 26.98 70.73 26.27 70.99 25.62C71.26 24.96 71.635 24.39 72.115 23.91C72.595 23.42 73.16 23.04 73.81 22.77C74.46 22.49 75.165 22.35 75.925 22.35C76.695 22.35 77.4 22.49 78.04 22.77C78.69 23.04 79.255 23.42 79.735 23.91C80.215 24.39 80.585 24.96 80.845 25.62C81.115 26.27 81.25 26.98 81.25 27.75C81.25 28.51 81.115 29.22 80.845 29.88C80.585 30.54 80.215 31.115 79.735 31.605C79.255 32.085 78.69 32.465 78.04 32.745C77.4 33.015 76.695 33.15 75.925 33.15C75.165 33.15 74.46 33.015 73.81 32.745C73.16 32.465 72.595 32.085 72.115 31.605C71.635 31.115 71.26 30.54 70.99 29.88C70.73 29.22 70.6 28.51 70.6 27.75ZM75.685 28.5H77.335L81.835 33H80.185L75.685 28.5ZM83.0506 22.5H84.3256V33H83.0506V22.5ZM91.9744 27.75C91.9744 28.54 92.1444 29.245 92.4844 29.865C92.8344 30.485 93.3094 30.975 93.9094 31.335C94.5094 31.695 95.1894 31.875 95.9494 31.875C96.7194 31.875 97.3994 31.695 97.9894 31.335C98.5894 30.975 99.0594 30.485 99.3994 29.865C99.7494 29.245 99.9244 28.54 99.9244 27.75C99.9244 26.96 99.7494 26.255 99.3994 25.635C99.0594 25.015 98.5894 24.525 97.9894 24.165C97.3994 23.805 96.7194 23.625 95.9494 23.625C95.1894 23.625 94.5094 23.805 93.9094 24.165C93.3094 24.525 92.8344 25.015 92.4844 25.635C92.1444 26.255 91.9744 26.96 91.9744 27.75ZM90.6244 27.75C90.6244 26.98 90.7544 26.27 91.0144 25.62C91.2844 24.96 91.6594 24.39 92.1394 23.91C92.6194 23.42 93.1844 23.04 93.8344 22.77C94.4844 22.49 95.1894 22.35 95.9494 22.35C96.7194 22.35 97.4244 22.49 98.0644 22.77C98.7144 23.04 99.2794 23.42 99.7594 23.91C100.239 24.39 100.609 24.96 100.869 25.62C101.139 26.27 101.274 26.98 101.274 27.75C101.274 28.51 101.139 29.22 100.869 29.88C100.609 30.54 100.239 31.115 99.7594 31.605C99.2794 32.085 98.7144 32.465 98.0644 32.745C97.4244 33.015 96.7194 33.15 95.9494 33.15C95.1894 33.15 94.4844 33.015 93.8344 32.745C93.1844 32.465 92.6194 32.085 92.1394 31.605C91.6594 31.115 91.2844 30.54 91.0144 29.88C90.7544 29.22 90.6244 28.51 90.6244 27.75ZM95.7094 28.5H97.3594L101.859 33H100.209L95.7094 28.5ZM103.075 22.5H104.35V33H103.075V22.5ZM114.702 22.5H115.977V33.525L108.027 25.185V33H106.752V21.975L114.702 30.315V22.5ZM123.258 28.875V27.675H128.133C128.133 28.405 128.023 29.1 127.803 29.76C127.583 30.41 127.258 30.99 126.828 31.5C126.398 32.01 125.868 32.415 125.238 32.715C124.618 33.005 123.908 33.15 123.108 33.15C122.348 33.15 121.643 33.02 120.993 32.76C120.343 32.49 119.778 32.115 119.298 31.635C118.818 31.145 118.443 30.57 118.173 29.91C117.913 29.25 117.783 28.53 117.783 27.75C117.783 26.97 117.913 26.25 118.173 25.59C118.443 24.93 118.818 24.36 119.298 23.88C119.778 23.39 120.343 23.015 120.993 22.755C121.643 22.485 122.348 22.35 123.108 22.35C123.758 22.35 124.353 22.435 124.893 22.605C125.443 22.775 125.933 23.025 126.363 23.355C126.803 23.685 127.173 24.095 127.473 24.585L126.573 25.41C126.243 24.85 125.783 24.415 125.193 24.105C124.603 23.785 123.908 23.625 123.108 23.625C122.368 23.625 121.698 23.8 121.098 24.15C120.498 24.5 120.018 24.985 119.658 25.605C119.308 26.215 119.133 26.93 119.133 27.75C119.133 28.56 119.308 29.275 119.658 29.895C120.018 30.515 120.498 31 121.098 31.35C121.698 31.7 122.368 31.875 123.108 31.875C123.628 31.875 124.093 31.8 124.503 31.65C124.923 31.49 125.283 31.27 125.583 30.99C125.883 30.71 126.128 30.39 126.318 30.03C126.518 29.67 126.663 29.285 126.753 28.875H123.258ZM135.516 29.85L135.966 28.65H140.616L141.066 29.85H135.516ZM138.261 24.87L136.491 29.04L136.371 29.31L134.811 33H133.386L138.261 21.975L143.136 33H141.711L140.181 29.4L140.061 29.1L138.261 24.87ZM144.709 27.75C144.709 28.56 144.889 29.275 145.249 29.895C145.619 30.515 146.099 31 146.689 31.35C147.279 31.7 147.919 31.875 148.609 31.875C149.109 31.875 149.564 31.81 149.974 31.68C150.394 31.55 150.774 31.37 151.114 31.14C151.454 30.9 151.744 30.625 151.984 30.315V31.995C151.544 32.385 151.064 32.675 150.544 32.865C150.024 33.055 149.379 33.15 148.609 33.15C147.879 33.15 147.194 33.02 146.554 32.76C145.924 32.49 145.369 32.115 144.889 31.635C144.409 31.145 144.034 30.57 143.764 29.91C143.494 29.25 143.359 28.53 143.359 27.75C143.359 26.97 143.494 26.25 143.764 25.59C144.034 24.93 144.409 24.36 144.889 23.88C145.369 23.39 145.924 23.015 146.554 22.755C147.194 22.485 147.879 22.35 148.609 22.35C149.379 22.35 150.024 22.445 150.544 22.635C151.064 22.825 151.544 23.115 151.984 23.505V25.185C151.744 24.875 151.454 24.605 151.114 24.375C150.774 24.135 150.394 23.95 149.974 23.82C149.564 23.69 149.109 23.625 148.609 23.625C147.919 23.625 147.279 23.8 146.689 24.15C146.099 24.5 145.619 24.985 145.249 25.605C144.889 26.215 144.709 26.93 144.709 27.75ZM154.152 22.5H155.427V29.55C155.427 30.27 155.622 30.85 156.012 31.29C156.402 31.73 156.972 31.95 157.722 31.95C158.472 31.95 159.042 31.73 159.432 31.29C159.822 30.85 160.017 30.27 160.017 29.55V22.5H161.292V29.55C161.292 30.07 161.207 30.55 161.037 30.99C160.877 31.43 160.637 31.81 160.317 32.13C160.007 32.45 159.632 32.7 159.192 32.88C158.752 33.06 158.262 33.15 157.722 33.15C157.182 33.15 156.692 33.06 156.252 32.88C155.812 32.7 155.432 32.45 155.112 32.13C154.802 31.81 154.562 31.43 154.392 30.99C154.232 30.55 154.152 30.07 154.152 29.55V22.5ZM163.617 22.5H164.892V33H163.617V22.5ZM164.322 23.7V22.5H166.467C167.147 22.5 167.752 22.63 168.282 22.89C168.822 23.14 169.247 23.5 169.557 23.97C169.877 24.44 170.037 25 170.037 25.65C170.037 26.29 169.877 26.85 169.557 27.33C169.247 27.8 168.822 28.165 168.282 28.425C167.752 28.675 167.147 28.8 166.467 28.8H164.322V27.6H166.467C167.147 27.6 167.697 27.435 168.117 27.105C168.547 26.775 168.762 26.29 168.762 25.65C168.762 25 168.547 24.515 168.117 24.195C167.697 23.865 167.147 23.7 166.467 23.7H164.322ZM171.76 22.5H173.035V29.55C173.035 30.27 173.23 30.85 173.62 31.29C174.01 31.73 174.58 31.95 175.33 31.95C176.08 31.95 176.65 31.73 177.04 31.29C177.43 30.85 177.625 30.27 177.625 29.55V22.5H178.9V29.55C178.9 30.07 178.815 30.55 178.645 30.99C178.485 31.43 178.245 31.81 177.925 32.13C177.615 32.45 177.24 32.7 176.8 32.88C176.36 33.06 175.87 33.15 175.33 33.15C174.79 33.15 174.3 33.06 173.86 32.88C173.42 32.7 173.04 32.45 172.72 32.13C172.41 31.81 172.17 31.43 172 30.99C171.84 30.55 171.76 30.07 171.76 29.55V22.5ZM189.174 22.5H190.449V33.525L182.499 25.185V33H181.224V21.975L189.174 30.315V22.5ZM193.605 27.75C193.605 28.56 193.785 29.275 194.145 29.895C194.515 30.515 194.995 31 195.585 31.35C196.175 31.7 196.815 31.875 197.505 31.875C198.005 31.875 198.46 31.81 198.87 31.68C199.29 31.55 199.67 31.37 200.01 31.14C200.35 30.9 200.64 30.625 200.88 30.315V31.995C200.44 32.385 199.96 32.675 199.44 32.865C198.92 33.055 198.275 33.15 197.505 33.15C196.775 33.15 196.09 33.02 195.45 32.76C194.82 32.49 194.265 32.115 193.785 31.635C193.305 31.145 192.93 30.57 192.66 29.91C192.39 29.25 192.255 28.53 192.255 27.75C192.255 26.97 192.39 26.25 192.66 25.59C192.93 24.93 193.305 24.36 193.785 23.88C194.265 23.39 194.82 23.015 195.45 22.755C196.09 22.485 196.775 22.35 197.505 22.35C198.275 22.35 198.92 22.445 199.44 22.635C199.96 22.825 200.44 23.115 200.88 23.505V25.185C200.64 24.875 200.35 24.605 200.01 24.375C199.67 24.135 199.29 23.95 198.87 23.82C198.46 23.69 198.005 23.625 197.505 23.625C196.815 23.625 196.175 23.8 195.585 24.15C194.995 24.5 194.515 24.985 194.145 25.605C193.785 26.215 193.605 26.93 193.605 27.75ZM201.62 23.7V22.5H208.295V23.7H205.595V33H204.32V23.7H201.62ZM209.567 22.5H210.842V29.55C210.842 30.27 211.037 30.85 211.427 31.29C211.817 31.73 212.387 31.95 213.137 31.95C213.887 31.95 214.457 31.73 214.847 31.29C215.237 30.85 215.432 30.27 215.432 29.55V22.5H216.707V29.55C216.707 30.07 216.622 30.55 216.452 30.99C216.292 31.43 216.052 31.81 215.732 32.13C215.422 32.45 215.047 32.7 214.607 32.88C214.167 33.06 213.677 33.15 213.137 33.15C212.597 33.15 212.107 33.06 211.667 32.88C211.227 32.7 210.847 32.45 210.527 32.13C210.217 31.81 209.977 31.43 209.807 30.99C209.647 30.55 209.567 30.07 209.567 29.55V22.5ZM218.957 22.5H220.232V29.55C220.232 30.27 220.427 30.85 220.817 31.29C221.207 31.73 221.777 31.95 222.527 31.95C223.277 31.95 223.847 31.73 224.237 31.29C224.627 30.85 224.822 30.27 224.822 29.55V22.5H226.097V29.55C226.097 30.07 226.012 30.55 225.842 30.99C225.682 31.43 225.442 31.81 225.122 32.13C224.812 32.45 224.437 32.7 223.997 32.88C223.557 33.06 223.067 33.15 222.527 33.15C221.987 33.15 221.497 33.06 221.057 32.88C220.617 32.7 220.237 32.45 219.917 32.13C219.607 31.81 219.367 31.43 219.197 30.99C219.037 30.55 218.957 30.07 218.957 29.55V22.5ZM230.297 27.825H231.722L235.472 33H233.897L230.297 27.825ZM228.422 22.5H229.697V33H228.422V22.5ZM229.127 23.625V22.5H231.272C231.952 22.5 232.557 22.63 233.087 22.89C233.627 23.14 234.052 23.5 234.362 23.97C234.682 24.44 234.842 25 234.842 25.65C234.842 26.29 234.682 26.85 234.362 27.33C234.052 27.8 233.627 28.165 233.087 28.425C232.557 28.675 231.952 28.8 231.272 28.8H229.127V27.675H231.272C231.722 27.675 232.117 27.595 232.457 27.435C232.807 27.275 233.077 27.045 233.267 26.745C233.467 26.445 233.567 26.08 233.567 25.65C233.567 25.22 233.467 24.855 233.267 24.555C233.077 24.255 232.807 24.025 232.457 23.865C232.117 23.705 231.722 23.625 231.272 23.625H229.127Z" fill="#6A0F02"/>
</svg>
